<svg xmlns="http://www.w3.org/2000/svg" version="1.1" viewBox="-0.13 -0.13 512.25 512.25">

<path d="M 111.10 0.00 L 184.11 0.00 C 184.99 4.56 184.40 9.73 178.08 8.14 C 172.82 8.91 180.00 19.95 170.99 16.04 C 164.30 16.07 168.16 28.38 174.96 24.28 C 179.35 32.64 169.05 28.88 167.58 33.45 C 169.11 45.34 148.58 33.78 152.45 45.85 C 153.79 50.38 147.26 47.84 145.01 50.20 C 141.81 54.23 151.53 57.72 146.04 60.07 C 141.67 63.45 143.82 50.89 137.28 56.09 C 131.22 61.23 142.66 64.20 138.06 70.03 C 134.61 75.06 137.52 58.90 130.28 65.09 C 125.62 68.91 130.94 74.37 135.96 72.28 C 139.20 79.30 132.33 78.66 128.26 80.26 C 126.55 83.85 127.74 90.94 121.00 87.97 C 119.31 89.77 114.37 86.15 113.31 89.38 C 112.29 96.15 112.33 103.00 111.85 109.81 C 109.43 111.83 104.58 109.71 103.57 113.44 C 105.62 120.96 94.20 117.41 96.74 124.88 C 95.72 132.54 85.08 126.09 81.09 130.28 C 81.01 134.48 81.94 138.62 81.93 142.81 C 77.39 147.32 69.65 142.53 65.07 146.29 C 60.41 154.68 75.67 149.33 71.03 157.82 C 68.26 159.52 63.42 158.92 63.27 163.16 C 62.62 169.58 54.73 167.13 50.20 168.20 C 48.67 170.42 48.80 173.31 47.75 175.75 C 44.07 177.31 38.25 176.28 39.49 182.58 C 38.06 185.97 28.68 182.44 33.16 189.95 C 32.79 192.62 36.26 198.75 32.26 197.90 C 35.41 191.37 26.38 191.41 24.18 194.31 C 23.19 199.82 27.39 209.81 17.69 208.72 C 15.70 214.28 16.97 223.23 9.40 224.40 C 9.96 229.76 7.20 237.56 0.00 235.15 L 0.00 125.26 C 5.42 122.64 8.89 118.65 9.80 112.78 C 18.17 112.93 22.52 102.67 29.11 98.12 C 36.02 94.46 29.52 83.98 37.07 81.07 C 57.87 66.26 65.71 36.86 91.96 29.87 C 91.70 25.98 91.08 22.13 91.07 18.24 C 95.26 13.40 106.05 18.09 104.72 8.73 C 110.64 9.00 112.62 5.49 111.10 0.00 Z" fill="#efebf2" opacity="1.00" stroke="#efebf2" stroke-width="0.25" data-index="1" style="opacity: 1; visibility: hidden; fill: rgb(240, 211, 229);"/>

<path d="M 262.46 0.00 L 321.09 0.00 C 319.47 5.22 324.05 17.99 314.07 16.13 C 310.48 16.61 313.70 22.48 310.57 23.48 C 304.29 22.27 305.30 28.07 303.75 31.75 C 299.57 33.12 294.11 32.71 295.28 39.28 C 286.53 37.08 291.60 46.44 286.60 48.51 C 277.07 45.35 283.01 59.01 273.80 56.83 C 271.91 63.31 273.39 71.63 271.84 78.75 C 268.08 82.22 260.59 78.16 257.28 82.35 C 255.95 87.50 258.19 95.02 252.23 97.03 C 259.83 101.21 246.76 99.61 242.21 100.15 C 240.77 102.27 236.69 107.41 244.80 103.69 C 249.72 104.50 264.53 99.20 264.30 106.18 C 256.81 106.13 249.23 105.37 241.81 106.76 L 241.03 106.90 C 236.61 107.45 232.14 107.64 227.78 108.55 C 221.06 110.14 214.26 111.55 207.68 113.64 C 197.97 117.24 188.56 121.71 179.62 126.92 C 151.20 144.43 130.44 173.52 122.10 205.78 C 119.86 213.26 118.56 220.99 117.75 228.76 C 117.03 236.85 116.01 245.24 117.63 253.29 C 118.66 259.56 118.92 265.96 120.74 272.09 C 121.65 275.43 122.47 278.82 123.49 282.14 C 125.38 288.22 128.24 293.93 130.20 299.98 C 125.97 299.93 127.39 294.42 124.60 292.35 C 119.46 288.58 122.71 277.57 114.96 277.19 C 115.08 278.91 115.39 280.61 115.63 282.32 C 109.59 280.11 115.71 274.16 117.50 270.81 C 116.06 266.39 117.17 258.58 112.37 257.08 C 111.86 261.28 110.28 265.59 104.68 264.70 C 104.74 268.66 103.89 274.00 98.07 272.14 C 91.34 274.11 99.50 290.23 89.49 286.47 C 85.87 285.30 88.54 290.83 87.99 293.00 C 88.70 297.61 81.83 294.13 80.42 297.39 C 84.14 307.76 68.55 299.82 71.87 309.93 C 71.34 313.52 65.70 310.30 64.42 313.39 C 68.12 323.75 52.64 315.83 55.83 325.89 C 55.40 330.62 47.80 326.15 46.39 328.77 C 50.13 340.64 35.53 331.19 30.38 336.18 C 30.71 340.66 32.27 345.17 30.84 349.66 C 28.86 353.01 24.06 350.36 20.99 350.08 C 23.32 352.47 24.84 355.24 24.03 358.84 C 21.73 360.52 17.84 358.67 16.42 361.39 C 18.48 371.73 5.49 367.06 0.00 369.13 L 0.00 312.10 C 2.70 311.67 7.37 313.56 7.83 309.90 C 4.63 299.83 20.13 307.75 16.42 297.39 C 17.81 294.67 21.70 296.61 23.92 294.84 C 24.24 289.92 20.53 278.51 29.58 279.47 C 32.86 278.35 29.37 271.42 33.98 272.01 C 44.21 275.81 36.19 259.76 46.61 263.58 C 49.69 262.30 46.47 256.68 50.07 256.13 C 58.06 258.37 55.73 250.11 56.05 246.00 C 52.13 233.76 71.84 245.86 68.48 233.47 C 74.04 231.28 69.56 222.06 77.54 223.47 C 81.16 222.29 76.87 214.01 82.14 215.56 C 87.70 219.44 88.51 212.32 88.43 209.40 C 89.78 206.61 93.80 208.76 95.93 206.78 C 97.31 202.02 93.78 194.98 97.34 191.23 C 99.80 190.97 104.71 190.45 107.17 190.19 C 105.51 184.87 113.51 184.35 111.43 179.65 C 109.81 174.60 117.48 176.19 120.27 174.31 C 119.13 166.91 133.11 164.89 128.66 157.41 C 124.30 151.92 132.17 151.80 134.60 151.57 C 137.33 150.17 135.51 146.26 137.15 143.94 C 141.65 143.21 144.81 147.10 149.10 147.07 C 149.65 141.83 139.85 145.04 143.95 138.02 C 142.81 127.66 148.22 133.92 148.26 138.91 C 152.22 136.61 154.65 133.50 154.46 128.33 C 160.02 126.19 164.47 121.59 167.55 116.62 C 168.81 110.25 180.36 113.12 177.11 105.26 C 181.00 103.75 183.88 101.41 182.35 96.34 C 189.54 91.02 193.22 82.72 200.32 77.28 C 206.04 73.05 207.47 64.78 214.63 62.62 C 212.66 55.82 221.60 55.16 220.92 48.83 C 230.08 43.63 234.12 33.49 241.76 26.70 C 244.98 23.81 251.48 23.81 249.45 17.42 C 250.57 15.14 255.26 16.20 254.95 13.00 C 253.52 6.76 259.95 4.43 262.46 0.00 Z" fill="#eee2ec" opacity="1.00" stroke="#eee2ec" stroke-width="0.25" data-index="3" style="opacity: 1; visibility: hidden; fill: rgb(240, 211, 229);"/>

<path d="M 412.13 0.00 L 484.11 0.00 C 488.01 10.08 477.79 7.27 472.82 8.79 C 474.12 14.19 469.42 16.93 465.13 17.60 C 458.39 15.75 445.34 11.26 446.28 23.28 C 436.16 20.54 444.16 35.21 434.11 32.18 C 428.30 34.35 434.93 44.00 430.70 47.84 C 426.51 48.07 422.34 47.78 418.17 48.10 C 416.16 52.56 416.29 57.80 414.32 62.32 C 410.26 63.84 405.71 64.09 401.75 65.79 C 398.30 69.44 403.17 78.92 397.56 80.45 C 388.48 79.14 393.63 90.29 390.24 94.23 C 385.37 97.49 374.01 93.87 375.29 103.29 C 365.01 103.11 368.75 117.91 367.04 124.02 C 366.53 133.19 352.40 124.61 347.23 130.45 C 350.67 133.89 354.02 138.10 349.15 142.00 C 351.82 146.84 361.75 142.49 361.22 149.86 C 357.94 147.64 355.95 148.29 356.02 152.39 C 347.80 144.36 340.08 135.61 330.05 129.75 C 328.34 128.59 326.66 127.38 324.96 126.21 C 325.50 126.12 326.57 125.93 327.10 125.83 C 320.80 119.42 311.14 118.18 304.23 112.54 C 309.48 108.33 313.41 102.67 318.98 98.83 C 318.57 95.67 317.63 92.55 318.04 89.31 C 321.16 87.61 325.22 86.45 323.38 81.37 C 326.63 78.34 331.04 77.01 334.78 74.71 C 337.14 71.63 334.55 66.90 337.26 64.17 C 342.10 63.19 347.05 62.92 351.98 62.83 C 351.72 56.84 349.04 49.09 355.69 45.68 C 358.02 42.29 360.56 45.75 362.98 46.96 C 369.31 46.29 363.55 38.08 365.12 34.28 C 371.52 29.77 377.05 24.13 382.50 18.53 C 381.82 9.31 390.85 6.01 398.73 8.03 C 403.18 12.44 397.41 18.59 400.75 23.33 C 404.00 26.39 413.47 17.70 405.92 17.05 C 401.27 16.72 408.05 16.01 407.87 13.94 C 406.17 7.55 415.80 7.17 412.13 0.00 Z" fill="#efd7e7" opacity="1.00" stroke="#efd7e7" stroke-width="0.25" data-index="5" style="opacity: 1; visibility: hidden; fill: rgb(240, 211, 229);"/>

<path d="M 498.25 33.17 C 502.77 32.22 507.38 31.98 512.00 31.90 L 512.00 78.93 C 504.38 82.34 487.65 74.96 487.27 87.27 C 476.69 86.35 482.21 99.86 479.50 105.44 C 482.00 115.23 470.08 110.65 465.75 113.74 C 464.16 117.73 464.85 122.52 463.81 126.74 C 460.10 130.26 452.56 126.13 449.28 130.35 C 447.58 135.69 451.17 146.59 441.26 144.25 C 439.38 148.21 440.96 153.96 433.72 152.73 C 436.25 163.55 421.68 157.52 423.28 167.28 C 412.62 166.87 417.24 181.94 415.04 188.02 C 415.94 195.63 404.02 189.80 401.28 194.35 C 400.63 198.46 400.50 202.63 399.81 206.74 C 396.10 210.26 388.56 206.12 385.28 210.35 C 384.62 214.46 384.52 218.64 383.79 222.74 C 380.00 226.59 372.91 222.78 369.25 226.35 C 367.96 235.48 367.93 244.68 368.91 253.84 C 362.09 256.32 348.09 251.78 348.43 263.40 C 345.40 265.25 344.60 270.22 348.17 271.87 C 350.82 272.82 349.40 277.38 346.82 277.10 L 346.08 276.58 C 340.61 271.79 334.44 267.26 327.22 265.66 C 311.86 262.01 306.22 279.52 297.17 287.90 C 294.47 283.04 289.52 290.78 286.11 291.96 C 283.46 288.92 288.67 288.31 287.55 285.37 C 285.27 278.42 297.93 279.49 297.31 272.20 C 303.96 267.12 308.18 259.59 314.48 254.57 C 313.44 248.32 322.55 248.68 321.52 242.44 C 324.19 237.95 332.33 242.32 335.88 238.79 C 336.25 234.62 335.90 230.42 336.14 226.25 C 338.39 222.07 347.88 226.79 345.28 220.83 C 343.69 216.84 348.98 215.80 351.83 216.72 C 351.97 213.27 351.41 208.18 356.04 208.04 C 359.77 208.04 355.52 203.41 357.65 201.65 C 360.61 199.81 359.93 205.34 359.38 207.08 C 364.81 208.46 369.09 205.96 367.64 199.68 C 365.19 192.89 374.36 192.61 373.63 186.46 C 379.42 184.69 377.28 176.52 383.63 176.51 C 388.82 176.59 382.06 169.04 386.48 168.60 C 394.95 171.00 389.23 159.74 394.97 160.00 C 404.03 164.01 396.80 152.90 402.08 152.14 C 413.70 155.84 402.54 136.84 413.58 141.60 C 420.48 142.98 414.43 132.66 416.72 129.71 C 418.34 125.65 428.90 130.86 424.46 125.55 C 421.91 120.25 428.36 121.09 431.84 121.79 C 429.01 110.48 444.98 108.52 444.52 97.48 C 447.96 95.32 449.05 91.86 450.33 88.33 C 457.42 87.85 455.24 77.80 463.71 79.62 C 465.19 75.51 464.72 70.12 471.27 71.27 C 470.48 66.20 474.09 64.93 477.69 63.72 C 477.51 61.88 477.08 60.06 477.05 58.21 C 481.89 57.88 479.77 51.87 482.23 49.16 C 486.33 48.46 490.49 48.10 494.63 47.68 C 498.69 44.37 494.68 36.90 498.25 33.17 Z" fill="#f0cde3" opacity="1.00" stroke="#f0cde3" stroke-width="0.25" data-index="7" style="opacity: 1; visibility: hidden; fill: rgb(240, 211, 229);"/>

<path d="M 241.81 106.76 C 249.23 105.37 256.81 106.13 264.30 106.18 L 264.02 106.99 C 256.61 107.05 249.21 106.96 241.81 106.76 Z" fill="#bbb5df" opacity="1.00" stroke="#bbb5df" stroke-width="0.25" data-index="9"/>
<path d="M 227.78 108.55 C 232.14 107.64 236.61 107.45 241.03 106.90 C 238.49 107.31 234.66 107.18 237.19 109.84 C 239.70 112.09 233.99 115.12 237.29 116.78 C 245.06 118.60 253.07 117.63 260.96 118.07 C 268.47 123.81 255.84 121.42 253.50 126.44 C 247.34 125.24 248.77 131.83 244.89 133.89 C 240.35 136.68 238.27 142.49 232.71 143.73 C 227.60 145.05 222.83 147.46 219.07 151.19 C 170.71 168.10 145.20 228.13 166.28 274.71 C 162.31 281.58 170.99 284.82 171.68 290.87 C 170.09 292.77 167.34 289.67 165.17 289.84 C 165.23 293.37 165.62 296.99 164.95 300.50 C 159.81 300.55 165.22 305.85 168.27 305.83 C 175.95 312.01 159.03 317.34 161.26 311.27 C 162.01 300.18 162.38 312.08 158.38 311.64 C 155.05 308.63 152.34 304.99 148.96 302.04 C 148.72 301.81 148.24 301.34 148.00 301.10 C 144.18 292.17 139.28 283.66 134.85 275.01 C 132.64 276.25 130.34 280.87 127.68 278.00 C 135.63 262.13 128.82 244.35 131.43 227.53 C 132.44 221.64 133.62 215.77 133.83 209.78 C 134.81 206.87 135.57 203.89 136.01 200.85 C 143.97 178.18 158.13 157.95 177.12 143.17 C 181.90 139.90 186.71 136.64 191.84 133.93 C 205.63 129.69 218.80 122.30 232.76 117.80 C 237.78 113.48 232.79 109.53 227.78 108.55 Z" fill="#8d93cc" opacity="1.00" stroke="#8d93cc" stroke-width="0.25" data-index="10" style="opacity: 1;"/>
<path d="M 241.03 106.90 L 241.81 106.76 C 249.21 106.96 256.61 107.05 264.02 106.99 C 266.73 107.08 269.41 107.27 272.13 107.59 C 267.44 108.78 266.25 115.04 267.90 118.98 C 265.56 118.83 263.28 118.32 260.96 118.07 C 253.07 117.63 245.06 118.60 237.29 116.78 C 233.99 115.12 239.70 112.09 237.19 109.84 C 234.66 107.18 238.49 107.31 241.03 106.90 Z" fill="#777cc2" opacity="1.00" stroke="#777cc2" stroke-width="0.25" data-index="11"/>
<path d="M 267.90 118.98 C 266.25 115.04 267.44 108.78 272.13 107.59 C 281.65 109.09 291.16 110.95 300.17 114.52 C 296.58 114.39 300.47 119.15 297.99 119.84 C 295.18 120.00 296.19 123.35 295.66 125.23 C 286.63 122.29 277.43 119.49 267.90 118.98 Z" fill="#705ab2" opacity="1.00" stroke="#705ab2" stroke-width="0.25" data-index="12"/>
<path d="M 207.68 113.64 C 214.26 111.55 221.06 110.14 227.78 108.55 C 232.79 109.53 237.78 113.48 232.76 117.80 C 218.80 122.30 205.63 129.69 191.84 133.93 C 196.91 128.16 210.25 127.30 207.80 117.26 C 206.51 116.12 206.47 114.86 207.68 113.64 Z" fill="#7ea0d5" opacity="1.00" stroke="#7ea0d5" stroke-width="0.25" data-index="13"/>
<path d="M 179.62 126.92 C 188.56 121.71 197.97 117.24 207.68 113.64 C 206.47 114.86 206.51 116.12 207.80 117.26 C 210.25 127.30 196.91 128.16 191.84 133.93 C 186.71 136.64 181.90 139.90 177.12 143.17 C 180.91 139.51 191.64 127.11 179.62 126.92 Z" fill="#82bae4" opacity="1.00" stroke="#82bae4" stroke-width="0.25" data-index="14"/>
<path d="M 297.99 119.84 C 300.47 119.15 296.58 114.39 300.17 114.52 C 308.88 117.36 317.19 121.38 324.96 126.21 C 326.66 127.38 328.34 128.59 330.05 129.75 C 323.29 130.08 341.50 136.92 328.50 135.46 C 326.19 136.76 328.64 140.69 327.07 142.99 C 326.07 142.30 325.07 141.60 324.10 140.88 C 317.04 135.80 309.60 131.03 301.53 127.71 C 299.59 126.85 297.62 126.04 295.66 125.23 C 296.19 123.35 295.18 120.00 297.99 119.84 Z" fill="#68349f" opacity="1.00" stroke="#68349f" stroke-width="0.25" data-index="15"/>
<path d="M 260.96 118.07 C 263.28 118.32 265.56 118.83 267.90 118.98 C 277.43 119.49 286.63 122.29 295.66 125.23 C 297.62 126.04 299.59 126.85 301.53 127.71 C 299.75 129.91 297.46 131.58 295.12 133.12 C 290.35 135.22 292.97 142.34 288.30 144.38 C 283.62 147.99 277.29 146.49 271.78 147.20 C 269.13 146.72 266.48 146.24 263.80 146.04 C 263.16 145.97 261.87 145.83 261.23 145.76 C 255.43 144.96 249.46 144.41 243.69 145.61 C 241.38 145.89 239.09 146.22 236.81 146.58 C 232.41 147.36 228.03 148.32 223.79 149.71 C 222.22 150.22 220.65 150.72 219.07 151.19 C 222.83 147.46 227.60 145.05 232.71 143.73 C 238.27 142.49 240.35 136.68 244.89 133.89 C 248.77 131.83 247.34 125.24 253.50 126.44 C 255.84 121.42 268.47 123.81 260.96 118.07 Z" fill="#8d88c7" opacity="1.00" stroke="#8d88c7" stroke-width="0.25" data-index="16"/>

<path d="M 122.10 205.78 C 130.44 173.52 151.20 144.43 179.62 126.92 C 191.64 127.11 180.91 139.51 177.12 143.17 C 158.13 157.95 143.97 178.18 136.01 200.85 C 132.48 203.16 131.94 207.58 129.61 210.81 C 124.35 213.56 123.48 209.02 122.10 205.78 Z" fill="#85d0f2" opacity="1.00" stroke="#85d0f2" stroke-width="0.25" data-index="18"/>
<path d="M 301.53 127.71 C 309.60 131.03 317.04 135.80 324.10 140.88 C 325.11 144.57 330.16 151.61 323.78 152.84 C 323.03 157.63 320.53 161.82 317.84 165.76 C 314.66 164.77 311.58 162.98 308.13 163.81 C 301.56 159.02 294.25 155.15 286.72 152.11 C 281.91 150.01 276.92 148.32 271.78 147.20 C 277.29 146.49 283.62 147.99 288.30 144.38 C 292.97 142.34 290.35 135.22 295.12 133.12 C 297.46 131.58 299.75 129.91 301.53 127.71 Z" fill="#8d7bc2" opacity="1.00" stroke="#8d7bc2" stroke-width="0.25" data-index="19"/>
<path d="M 328.50 135.46 C 341.50 136.92 323.29 130.08 330.05 129.75 C 340.08 135.61 347.80 144.36 356.02 152.39 C 359.34 157.27 362.94 161.94 366.09 166.94 C 366.16 168.74 366.30 172.35 366.37 174.16 C 362.09 180.77 356.79 186.68 351.30 192.30 C 341.07 201.72 329.80 214.46 314.48 213.09 C 313.84 212.79 312.56 212.19 311.92 211.89 C 317.48 208.79 314.87 201.34 318.98 197.13 C 323.49 195.00 327.72 192.22 331.07 188.48 C 337.36 181.69 344.14 175.20 349.62 167.75 C 344.34 158.04 336.05 149.60 327.07 142.99 C 328.64 140.69 326.19 136.76 328.50 135.46 Z" fill="#600c8a" opacity="1.00" stroke="#600c8a" stroke-width="0.25" data-index="20" style="opacity: 1;"/>
<path d="M 324.10 140.88 C 325.07 141.60 326.07 142.30 327.07 142.99 C 336.05 149.60 344.34 158.04 349.62 167.75 C 344.14 175.20 337.36 181.69 331.07 188.48 C 323.53 180.63 317.56 170.88 308.30 164.66 L 308.13 163.81 C 311.58 162.98 314.66 164.77 317.84 165.76 C 320.53 161.82 323.03 157.63 323.78 152.84 C 330.16 151.61 325.11 144.57 324.10 140.88 Z" fill="#8d6fbe" opacity="1.00" stroke="#8d6fbe" stroke-width="0.25" data-index="21"/>
<path d="M 243.69 145.61 C 249.46 144.41 255.43 144.96 261.23 145.76 C 255.37 145.92 249.52 145.94 243.69 145.61 Z" fill="#7656aa" opacity="1.00" stroke="#7656aa" stroke-width="0.25" data-index="22"/>
<path d="M 236.81 146.58 C 239.09 146.22 241.38 145.89 243.69 145.61 C 249.52 145.94 255.37 145.92 261.23 145.76 C 261.87 145.83 263.16 145.97 263.80 146.04 C 264.87 146.47 265.94 146.91 267.00 147.37 C 262.05 151.85 264.54 159.29 264.86 165.06 C 264.49 169.34 270.17 169.88 272.93 171.16 C 280.59 173.16 286.75 178.52 294.18 181.01 C 299.79 185.69 305.00 190.86 310.78 195.34 C 312.86 197.62 316.17 196.78 318.98 197.13 C 314.87 201.34 317.48 208.79 311.92 211.89 C 300.05 205.66 293.26 192.39 279.80 188.26 C 285.67 188.80 284.88 182.98 288.97 181.61 C 276.36 170.96 259.90 170.17 244.44 167.71 C 243.40 162.66 242.68 157.42 241.06 152.54 C 238.32 150.78 241.19 145.91 236.81 146.58 Z" fill="#631d94" opacity="1.00" stroke="#631d94" stroke-width="0.25" data-index="23" style="opacity: 1;"/>
<path d="M 263.80 146.04 C 266.48 146.24 269.13 146.72 271.78 147.20 C 276.92 148.32 281.91 150.01 286.72 152.11 C 290.22 156.21 286.73 161.00 287.45 165.65 C 288.18 168.40 284.64 169.96 285.40 172.74 C 288.36 175.46 291.67 177.83 294.18 181.01 C 286.75 178.52 280.59 173.16 272.93 171.16 C 270.17 169.88 264.49 169.34 264.86 165.06 C 264.54 159.29 262.05 151.85 267.00 147.37 C 265.94 146.91 264.87 146.47 263.80 146.04 Z" fill="#682c9c" opacity="1.00" stroke="#682c9c" stroke-width="0.25" data-index="24"/>
<path d="M 223.79 149.71 C 228.03 148.32 232.41 147.36 236.81 146.58 C 241.19 145.91 238.32 150.78 241.06 152.54 C 242.68 157.42 243.40 162.66 244.44 167.71 C 259.90 170.17 276.36 170.96 288.97 181.61 C 284.88 182.98 285.67 188.80 279.80 188.26 C 277.15 187.28 274.48 186.34 271.92 185.15 C 266.43 182.46 264.01 179.22 267.82 174.18 C 254.71 167.93 239.84 171.75 226.25 173.85 C 224.75 166.84 229.20 156.69 223.79 149.71 Z" fill="#61128f" opacity="1.00" stroke="#61128f" stroke-width="0.25" data-index="25"/>
<path d="M 219.07 151.19 C 220.65 150.72 222.22 150.22 223.79 149.71 C 229.20 156.69 224.75 166.84 226.25 173.85 C 239.84 171.75 254.71 167.93 267.82 174.18 C 264.01 179.22 266.43 182.46 271.92 185.15 C 269.03 184.65 266.15 184.07 263.24 183.73 C 258.11 182.78 252.85 182.80 247.75 183.76 C 219.37 186.18 194.97 211.44 194.07 240.02 C 191.65 267.93 211.90 294.51 238.35 302.29 C 234.38 302.32 230.64 303.02 227.28 305.28 C 228.77 307.11 232.52 309.69 224.01 307.02 C 217.70 306.74 212.49 301.90 206.17 302.03 C 204.23 306.51 208.40 316.22 201.81 316.32 C 186.16 306.35 173.86 291.60 166.28 274.71 C 145.20 228.13 170.71 168.10 219.07 151.19 Z" fill="#5e0487" opacity="1.00" stroke="#5e0487" stroke-width="0.25" data-index="26" style="opacity: 1;"/>
<path d="M 286.72 152.11 C 294.25 155.15 301.56 159.02 308.13 163.81 L 308.30 164.66 C 309.43 168.21 307.65 170.98 305.31 173.44 C 305.33 181.34 304.58 189.45 310.78 195.34 C 305.00 190.86 299.79 185.69 294.18 181.01 C 291.67 177.83 288.36 175.46 285.40 172.74 C 284.64 169.96 288.18 168.40 287.45 165.65 C 286.73 161.00 290.22 156.21 286.72 152.11 Z" fill="#6c3aa4" opacity="1.00" stroke="#6c3aa4" stroke-width="0.25" data-index="27"/>
<path d="M 308.30 164.66 C 317.56 170.88 323.53 180.63 331.07 188.48 C 327.72 192.22 323.49 195.00 318.98 197.13 C 316.17 196.78 312.86 197.62 310.78 195.34 C 304.58 189.45 305.33 181.34 305.31 173.44 C 307.65 170.98 309.43 168.21 308.30 164.66 Z" fill="#7048ac" opacity="1.00" stroke="#7048ac" stroke-width="0.25" data-index="28"/>
<path d="M 366.09 166.94 C 368.52 168.54 367.98 171.95 366.37 174.16 C 366.30 172.35 366.16 168.74 366.09 166.94 Z" fill="#9e6bae" opacity="1.00" stroke="#9e6bae" stroke-width="0.25" data-index="29"/>
<path d="M 247.75 183.76 C 252.85 182.80 258.11 182.78 263.24 183.73 C 258.06 183.83 252.90 184.07 247.75 183.76 Z" fill="#b27ac5" opacity="1.00" stroke="#b27ac5" stroke-width="0.25" data-index="30"/>

<path d="M 129.61 210.81 C 131.94 207.58 132.48 203.16 136.01 200.85 C 135.57 203.89 134.81 206.87 133.83 209.78 C 128.63 220.94 133.70 237.91 121.50 244.69 C 120.41 243.02 119.37 241.33 118.20 239.72 C 118.07 236.05 117.93 232.41 117.75 228.76 C 118.56 220.99 119.86 213.26 122.10 205.78 C 123.48 209.02 124.35 213.56 129.61 210.81 Z" fill="#82bce6" opacity="1.00" stroke="#82bce6" stroke-width="0.25" data-index="32"/>
<path d="M 121.50 244.69 C 133.70 237.91 128.63 220.94 133.83 209.78 C 133.62 215.77 132.44 221.64 131.43 227.53 C 128.82 244.35 135.63 262.13 127.68 278.00 L 127.06 277.49 C 125.30 275.32 123.09 273.57 120.74 272.09 C 118.92 265.96 118.66 259.56 117.63 253.29 C 117.81 248.76 118.04 244.24 118.20 239.72 C 119.37 241.33 120.41 243.02 121.50 244.69 Z" fill="#81a3d8" opacity="1.00" stroke="#81a3d8" stroke-width="0.25" data-index="33" style="opacity: 1;"/>

<path d="M 117.63 253.29 C 116.01 245.24 117.03 236.85 117.75 228.76 C 117.93 232.41 118.07 236.05 118.20 239.72 C 118.04 244.24 117.81 248.76 117.63 253.29 Z" fill="#bbcbe8" opacity="1.00" stroke="#bbcbe8" stroke-width="0.25" data-index="35"/>

<path d="M 297.17 287.90 C 306.22 279.52 311.86 262.01 327.22 265.66 C 325.20 265.69 320.77 266.12 324.98 267.03 C 330.74 267.55 326.49 274.21 326.01 277.67 C 319.06 276.62 314.53 282.25 311.93 287.76 C 305.60 293.39 299.59 299.58 294.03 306.00 C 289.42 310.54 294.84 316.90 292.16 322.11 C 285.61 324.97 278.96 327.74 271.89 328.95 C 270.91 324.81 269.37 321.02 268.11 317.27 C 274.97 312.05 284.09 310.59 290.30 304.31 C 294.77 301.00 294.74 294.57 295.21 289.61 C 295.86 289.04 296.51 288.47 297.17 287.90 Z" fill="#6d46aa" opacity="1.00" stroke="#6d46aa" stroke-width="0.25" data-index="37" style="opacity: 1;"/>
<path d="M 324.98 267.03 C 320.77 266.12 325.20 265.69 327.22 265.66 C 334.44 267.26 340.61 271.79 346.08 276.58 C 345.46 281.42 341.80 284.80 342.81 290.15 C 339.86 287.75 337.00 285.23 334.15 282.73 C 331.64 280.73 328.86 279.11 326.01 277.67 C 326.49 274.21 330.74 267.55 324.98 267.03 Z" fill="#652c9b" opacity="1.00" stroke="#652c9b" stroke-width="0.25" data-index="38"/>

<path d="M 120.74 272.09 C 123.09 273.57 125.30 275.32 127.06 277.49 C 125.66 278.86 124.30 280.33 123.49 282.14 C 122.47 278.82 121.65 275.43 120.74 272.09 Z" fill="#8a9bd1" opacity="1.00" stroke="#8a9bd1" stroke-width="0.25" data-index="40"/>
<path d="M 127.68 278.00 C 130.34 280.87 132.64 276.25 134.85 275.01 C 139.28 283.66 144.18 292.17 148.00 301.10 C 145.64 299.44 143.20 293.47 140.09 297.07 C 138.40 300.38 133.82 300.57 132.58 304.08 C 131.81 302.70 131.03 301.32 130.20 299.98 C 128.24 293.93 125.38 288.22 123.49 282.14 C 124.30 280.33 125.66 278.86 127.06 277.49 L 127.68 278.00 Z" fill="#7c86c9" opacity="1.00" stroke="#7c86c9" stroke-width="0.25" data-index="41"/>
<path d="M 166.28 274.71 C 173.86 291.60 186.16 306.35 201.81 316.32 C 206.44 319.26 211.33 321.80 216.40 323.92 C 213.10 326.30 205.41 327.92 209.54 332.46 C 207.88 338.06 202.67 343.18 196.28 343.64 C 194.08 341.72 191.52 340.05 188.73 342.08 C 185.33 340.22 182.00 338.21 179.04 335.69 C 172.10 329.72 164.86 324.00 159.11 316.81 C 155.35 312.15 152.00 307.18 148.96 302.04 C 152.34 304.99 155.05 308.63 158.38 311.64 C 162.38 312.08 162.01 300.18 161.26 311.27 C 159.03 317.34 175.95 312.01 168.27 305.83 C 165.22 305.85 159.81 300.55 164.95 300.50 C 165.62 296.99 165.23 293.37 165.17 289.84 C 167.34 289.67 170.09 292.77 171.68 290.87 C 170.99 284.82 162.31 281.58 166.28 274.71 Z" fill="#8e86c7" opacity="1.00" stroke="#8e86c7" stroke-width="0.25" data-index="42"/>
<path d="M 342.81 290.15 C 341.80 284.80 345.46 281.42 346.08 276.58 L 346.82 277.10 C 354.86 282.82 360.51 291.09 367.00 298.39 C 368.72 301.25 370.77 304.23 369.90 307.86 C 364.34 320.86 355.99 332.58 346.07 342.62 C 324.22 363.96 294.73 376.94 264.32 379.15 C 257.87 378.96 251.42 379.02 244.98 379.12 C 243.96 378.50 242.94 377.90 241.95 377.26 C 248.48 377.79 247.05 368.44 247.26 364.21 C 250.37 362.46 254.01 361.81 257.25 360.27 C 260.44 360.05 263.70 359.96 266.79 359.04 C 301.17 355.56 334.22 335.87 351.69 305.70 C 355.98 299.33 345.79 294.87 342.81 290.15 Z" fill="#610989" opacity="1.00" stroke="#610989" stroke-width="0.25" data-index="43" style="opacity: 1;"/>
<path d="M 311.93 287.76 C 314.53 282.25 319.06 276.62 326.01 277.67 C 328.86 279.11 331.64 280.73 334.15 282.73 C 327.67 289.84 322.84 299.44 315.32 306.19 C 308.36 302.63 308.91 293.89 311.93 287.76 Z" fill="#736fc0" opacity="1.00" stroke="#736fc0" stroke-width="0.25" data-index="44"/>
<path d="M 315.32 306.19 C 322.84 299.44 327.67 289.84 334.15 282.73 C 327.56 297.98 315.10 310.30 301.21 319.13 C 299.50 319.78 297.79 320.40 296.08 321.03 C 302.51 316.12 309.30 311.62 315.32 306.19 Z" fill="#a2a6eb" opacity="1.00" stroke="#a2a6eb" stroke-width="0.25" data-index="45" style="opacity: 1;"/>
<path d="M 334.15 282.73 C 337.00 285.23 339.86 287.75 342.81 290.15 C 345.79 294.87 355.98 299.33 351.69 305.70 C 334.22 335.87 301.17 355.56 266.79 359.04 C 269.40 353.05 279.46 356.91 278.71 348.46 C 282.29 346.22 284.76 341.23 286.85 338.58 C 293.65 343.41 291.29 331.89 297.28 332.35 C 288.58 334.33 291.16 326.08 296.37 325.52 C 300.14 325.58 300.61 322.08 301.21 319.13 C 315.10 310.30 327.56 297.98 334.15 282.73 Z" fill="#8d68bc" opacity="1.00" stroke="#8d68bc" stroke-width="0.25" data-index="46" style="opacity: 1;"/>
<path d="M 294.03 306.00 C 299.59 299.58 305.60 293.39 311.93 287.76 C 308.91 293.89 308.36 302.63 315.32 306.19 C 309.30 311.62 302.51 316.12 296.08 321.03 C 294.77 321.38 293.46 321.73 292.16 322.11 C 294.84 316.90 289.42 310.54 294.03 306.00 Z" fill="#705bb4" opacity="1.00" stroke="#705bb4" stroke-width="0.25" data-index="47" style="opacity: 1;"/>
<path d="M 269.84 302.69 C 278.94 299.73 287.85 295.84 295.21 289.61 C 294.74 294.57 294.77 301.00 290.30 304.31 C 284.09 310.59 274.97 312.05 268.11 317.27 C 269.37 321.02 270.91 324.81 271.89 328.95 C 267.54 329.78 263.25 330.95 258.82 331.21 C 252.16 330.77 245.42 331.63 238.82 330.52 C 243.23 328.24 238.79 320.54 240.17 317.21 C 248.75 314.78 259.99 316.81 267.77 310.79 C 269.40 309.52 267.37 307.07 268.79 305.80 C 269.90 304.47 273.87 302.43 269.84 302.69 Z" fill="#69349f" opacity="1.00" stroke="#69349f" stroke-width="0.25" data-index="48" style="opacity: 1;"/>
<path d="M 140.09 297.07 C 143.20 293.47 145.64 299.44 148.00 301.10 C 148.24 301.34 148.72 301.81 148.96 302.04 C 152.00 307.18 155.35 312.15 159.11 316.81 C 153.25 314.68 149.62 321.99 146.60 326.02 C 141.19 319.21 137.08 311.49 132.58 304.08 C 133.82 300.57 138.40 300.38 140.09 297.07 Z" fill="#756dbd" opacity="1.00" stroke="#756dbd" stroke-width="0.25" data-index="49"/>
<path d="M 206.17 302.03 C 212.49 301.90 217.70 306.74 224.01 307.02 C 232.52 309.69 228.77 307.11 227.28 305.28 C 230.64 303.02 234.38 302.32 238.35 302.29 C 240.49 302.64 242.62 303.06 244.79 303.33 C 253.10 304.65 261.57 304.06 269.84 302.69 C 273.87 302.43 269.90 304.47 268.79 305.80 C 267.37 307.07 269.40 309.52 267.77 310.79 C 259.99 316.81 248.75 314.78 240.17 317.21 C 238.79 320.54 243.23 328.24 238.82 330.52 C 231.11 329.24 223.55 327.08 216.40 323.92 C 211.33 321.80 206.44 319.26 201.81 316.32 C 208.40 316.22 204.23 306.51 206.17 302.03 Z" fill="#631e94" opacity="1.00" stroke="#631e94" stroke-width="0.25" data-index="50"/>

<path d="M 146.60 326.02 C 149.62 321.99 153.25 314.68 159.11 316.81 C 164.86 324.00 172.10 329.72 179.04 335.69 C 174.16 335.65 173.41 341.66 170.73 344.59 C 168.80 344.44 166.74 344.05 165.58 346.02 C 163.50 344.10 161.53 342.07 159.48 340.13 C 155.03 335.57 150.53 331.04 146.60 326.02 Z" fill="#7155b1" opacity="1.00" stroke="#7155b1" stroke-width="0.25" data-index="52"/>
<path d="M 296.08 321.03 C 297.79 320.40 299.50 319.78 301.21 319.13 C 300.61 322.08 300.14 325.58 296.37 325.52 C 291.16 326.08 288.58 334.33 297.28 332.35 C 291.29 331.89 293.65 343.41 286.85 338.58 C 284.76 341.23 282.29 346.22 278.71 348.46 C 279.46 356.91 269.40 353.05 266.79 359.04 C 263.70 359.96 260.44 360.05 257.25 360.27 C 245.59 360.35 233.87 359.61 222.63 356.31 C 232.75 354.43 243.60 349.00 247.67 338.81 C 248.31 332.67 256.47 335.41 260.34 332.35 C 272.70 330.85 285.81 328.35 296.08 321.03 Z" fill="#8e71be" opacity="1.00" stroke="#8e71be" stroke-width="0.25" data-index="53" style="opacity: 1;"/>
<path d="M 292.16 322.11 C 293.46 321.73 294.77 321.38 296.08 321.03 C 285.81 328.35 272.70 330.85 260.34 332.35 C 259.96 332.06 259.20 331.49 258.82 331.21 C 263.25 330.95 267.54 329.78 271.89 328.95 C 278.96 327.74 285.61 324.97 292.16 322.11 Z" fill="#a092de" opacity="1.00" stroke="#a092de" stroke-width="0.25" data-index="54" style="opacity: 1;"/>
<path d="M 216.40 323.92 C 223.55 327.08 231.11 329.24 238.82 330.52 C 245.42 331.63 252.16 330.77 258.82 331.21 C 259.20 331.49 259.96 332.06 260.34 332.35 C 256.47 335.41 248.31 332.67 247.67 338.81 C 243.60 349.00 232.75 354.43 222.63 356.31 C 218.69 355.57 214.91 354.20 211.20 352.74 C 203.54 349.59 195.54 346.93 188.73 342.08 C 191.52 340.05 194.08 341.72 196.28 343.64 C 202.67 343.18 207.88 338.06 209.54 332.46 C 205.41 327.92 213.10 326.30 216.40 323.92 Z" fill="#8d7cc2" opacity="1.00" stroke="#8d7cc2" stroke-width="0.25" data-index="55" style="opacity: 1;"/>

<path d="M 170.73 344.59 C 173.41 341.66 174.16 335.65 179.04 335.69 C 182.00 338.21 185.33 340.22 188.73 342.08 C 195.54 346.93 203.54 349.59 211.20 352.74 C 199.81 349.16 207.25 366.51 196.51 366.13 C 191.20 363.98 186.38 360.91 181.43 358.09 C 176.15 354.06 170.51 350.47 165.58 346.02 C 166.74 344.05 168.80 344.44 170.73 344.59 Z" fill="#6d3da5" opacity="1.00" stroke="#6d3da5" stroke-width="0.25" data-index="57"/>

<path d="M 158.70 359.63 C 160.95 356.31 159.08 351.31 162.90 348.99 C 165.26 350.90 168.11 351.90 170.73 353.34 C 174.04 355.21 177.09 361.10 181.43 358.09 C 186.38 360.91 191.20 363.98 196.51 366.13 C 203.49 369.85 211.11 372.11 218.52 374.79 C 218.86 377.23 213.12 379.59 216.95 380.51 C 213.39 383.08 208.79 383.25 207.35 378.45 C 213.87 375.10 204.91 373.43 201.57 373.94 C 201.26 377.47 198.96 380.47 197.79 383.77 C 188.98 387.18 187.97 397.75 180.05 402.07 C 174.73 405.71 177.15 414.73 170.43 416.53 C 166.56 418.15 169.12 425.37 162.45 423.57 C 158.91 424.26 161.27 429.25 159.18 431.21 C 152.16 434.17 146.64 440.58 144.81 447.85 C 142.15 451.39 136.63 452.78 135.55 457.42 C 136.79 463.21 131.56 462.65 128.34 464.30 C 127.36 468.32 126.61 472.85 121.86 473.87 C 120.76 477.83 118.94 481.32 113.74 480.74 C 113.18 486.01 109.63 490.00 107.74 494.73 C 100.65 498.19 94.34 503.27 94.78 512.00 L 31.90 512.00 C 32.32 509.28 30.43 504.63 34.10 504.17 C 42.66 507.31 37.62 497.39 42.07 496.13 C 52.18 499.45 44.23 483.85 54.61 487.58 C 57.50 486.43 54.78 481.38 57.40 480.50 C 61.93 481.06 64.89 476.77 65.77 473.14 C 62.24 468.32 64.09 460.93 71.77 463.74 C 70.33 456.89 74.03 455.24 79.75 454.74 C 76.05 443.66 92.46 451.91 88.68 440.69 C 97.65 443.13 92.54 431.58 99.16 431.27 C 106.10 430.94 102.20 421.75 104.69 417.71 C 110.52 417.79 113.79 414.58 113.72 408.73 C 122.91 411.56 117.19 400.13 122.97 399.99 C 132.93 402.13 130.19 389.21 133.26 384.14 C 135.64 384.06 140.39 383.90 142.76 383.82 C 143.43 380.99 141.93 376.48 145.45 375.58 C 157.62 376.98 145.64 356.36 158.70 359.63 Z" fill="#f0d3e5" opacity="1.00" stroke="#f0d3e5" stroke-width="0.25" data-index="59" style="opacity: 1; visibility: hidden; fill: rgb(240, 211, 229);"/>
<path d="M 196.51 366.13 C 207.25 366.51 199.81 349.16 211.20 352.74 C 214.91 354.20 218.69 355.57 222.63 356.31 C 233.87 359.61 245.59 360.35 257.25 360.27 C 254.01 361.81 250.37 362.46 247.26 364.21 C 247.05 368.44 248.48 377.79 241.95 377.26 C 242.94 377.90 243.96 378.50 244.98 379.12 C 236.02 378.57 227.22 376.87 218.52 374.79 C 211.11 372.11 203.49 369.85 196.51 366.13 Z" fill="#682297" opacity="1.00" stroke="#682297" stroke-width="0.25" data-index="60" style="opacity: 1;"/>

<path d="M 244.98 379.12 C 251.42 379.02 257.87 378.96 264.32 379.15 L 263.92 379.97 C 257.59 380.08 251.22 380.27 244.98 379.12 Z" fill="#bd84cc" opacity="1.00" stroke="#bd84cc" stroke-width="0.25" data-index="62"/>

</svg>